<svg width="89" height="89" viewBox="0 0 89 89" fill="none" xmlns="http://www.w3.org/2000/svg">
<path d="M88.9823 17.1554C88.8944 9.66812 85.0628 5.54446 78.193 5.54446C75.5341 5.54446 72.972 6.16336 71.297 6.67974C71.4638 3.61935 71.4664 1.73025 71.4664 1.63634L71.4666 0.326172H18.2877V1.63617C18.2877 1.68097 18.2921 3.59988 18.4608 6.68129C16.7861 6.16456 14.2215 5.54446 11.56 5.54446C4.69041 5.54446 0.858628 9.66794 0.770755 17.1554C0.684261 24.5213 2.36419 31.078 5.7635 36.6438C9.10095 42.1083 13.3668 45.4011 16.3577 47.2008C21.1482 50.0837 25.9359 50.6888 29.109 50.6888C29.8912 50.6888 30.6449 50.652 31.3497 50.5793C31.3964 50.5744 31.4397 50.5689 31.4853 50.5639C33.0195 52.2161 34.6734 53.5395 36.4407 54.523C37.7435 55.2479 38.6496 56.5121 38.9601 57.9651C37.2035 58.5118 35.9245 60.1529 35.9245 62.087C35.9245 64.0645 37.262 65.7346 39.0793 66.2429V71.741H31.9905V77.4788H24.9951V88.5347H64.7587V77.4788H57.7634V71.741H50.6746V66.2429C52.492 65.7344 53.8296 64.0645 53.8296 62.087C53.8296 60.1528 52.5506 58.5118 50.794 57.9651C51.1045 56.5121 52.0104 55.2481 53.3134 54.523C55.0763 53.5421 56.7416 52.2114 58.272 50.5646C58.8142 50.6247 59.6273 50.6887 60.6439 50.6887C60.6442 50.6887 60.644 50.6887 60.6446 50.6887C63.8173 50.6887 68.6048 50.0832 73.395 47.2006C76.3857 45.4008 80.6517 42.1081 83.9892 36.6436C87.389 31.078 89.0688 24.5211 88.9823 17.1554ZM68.8249 2.94617C68.8131 3.42534 68.7945 4.0277 68.7659 4.73275H20.9935C20.9638 4.02787 20.944 3.42465 20.9313 2.94617H68.8249ZM70.6068 14.975C72.3818 14.3841 74.6824 13.7883 76.7433 13.7883C78.4713 13.7883 79.7154 14.2105 80.4413 15.043C81.2756 16 81.5446 17.6075 81.2403 19.8216C79.9734 29.0441 75.9745 36.2432 69.9798 40.0922C67.8917 41.433 65.6428 41.987 63.7582 42.1838C67.7447 33.8046 69.6741 23.2915 70.6068 14.975ZM20.4952 24.1005C21.7838 31.0123 23.563 36.9477 25.7836 41.7416C25.8523 41.8905 25.9223 42.0371 25.9919 42.1838C24.108 41.9865 21.8605 41.4327 19.7732 40.0925C13.7787 36.2434 9.77964 29.0445 8.51272 19.8219C8.20861 17.6077 8.4774 16 9.31185 15.0434C10.0378 14.2108 11.2821 13.7888 13.0099 13.7888C15.0725 13.7888 17.3752 14.3855 19.1509 14.9767C19.4681 17.8131 19.9018 20.9178 20.4952 24.1005ZM29.109 48.0688C26.2681 48.0688 21.9838 47.5287 17.7089 44.9561C13.3368 42.325 3.18916 34.352 3.39075 17.1863C3.46208 11.1156 6.13429 8.16463 11.56 8.16463C14.4617 8.16463 17.3276 9.03939 18.6376 9.50081C18.7029 10.3797 18.7761 11.2612 18.8571 12.1391C17.0764 11.616 14.9783 11.1683 13.0099 11.1683C10.4912 11.1683 8.58267 11.8925 7.33694 13.3209C5.98284 14.8738 5.50505 17.1809 5.91685 20.1781C6.62224 25.3128 8.09644 29.8512 10.2986 33.667C12.4008 37.3097 15.1123 40.2133 18.3574 42.2968C21.5271 44.3322 24.9553 44.8454 27.4008 44.8945C27.4091 44.909 27.4175 44.9228 27.4258 44.9371C27.5598 45.172 27.6952 45.4028 27.8321 45.6308C27.8746 45.7019 27.9175 45.7726 27.9604 45.8431C28.0909 46.0574 28.2223 46.2697 28.3552 46.4776C28.4051 46.5559 28.4558 46.6322 28.5061 46.7097C28.5966 46.8488 28.6875 46.9866 28.7792 47.1229C28.8678 47.2547 28.9567 47.3851 29.0461 47.5142C29.1338 47.6405 29.2217 47.7661 29.3102 47.89C29.3517 47.9482 29.3926 48.0087 29.4341 48.0662C29.3287 48.068 29.2203 48.0688 29.109 48.0688ZM62.1389 80.0991V85.9147H27.6155V80.0991H31.9907H57.7635H62.1389ZM50.6749 74.3613H55.1434V77.4789H34.6109V74.3613H39.0795H50.6749ZM41.6995 71.7412V66.403H48.0548V71.7412H41.6995ZM51.2097 62.087C51.2097 63.0221 50.4489 63.7828 49.514 63.7828H40.2404C39.3054 63.7828 38.5447 63.0221 38.5447 62.087C38.5447 61.1519 39.3054 60.3912 40.2404 60.3912H49.514C50.449 60.3912 51.2097 61.1519 51.2097 62.087ZM57.763 47.11C57.7485 47.1288 57.7341 47.1475 57.7196 47.1663C57.5907 47.3331 57.4608 47.4958 57.3302 47.6562C57.2981 47.6953 57.2666 47.7351 57.2344 47.774C57.0909 47.9484 56.9461 48.119 56.8007 48.2854C56.7937 48.2933 56.7871 48.3016 56.78 48.3095C55.3191 49.9762 53.7243 51.2962 52.0397 52.2335C49.9633 53.3886 48.5515 55.4402 48.1631 57.7711H41.5913C41.2027 55.44 39.7909 53.3886 37.7145 52.2335C36.0887 51.3291 34.6203 50.1201 33.2938 48.6753L32.9733 48.3097C31.6707 46.8241 30.4429 45.0243 29.3242 42.9607L28.9815 42.3281C23.3478 31.4427 21.6437 15.7098 21.1299 7.35275H68.6339C68.6121 7.7163 68.5881 8.09174 68.5616 8.48166C68.5604 8.49975 68.559 8.51836 68.5578 8.53645C68.5288 8.95893 68.4978 9.38262 68.4649 9.80665C68.4641 9.81905 68.463 9.83146 68.4622 9.84404C68.3574 11.188 68.2334 12.5369 68.0919 13.8698L68.0063 14.6758C67.0543 23.2095 65.0437 34.0812 60.8039 42.2702L60.4295 42.9605C59.5965 44.4967 58.7029 45.8865 57.763 47.11ZM72.0443 44.9561C67.769 47.5288 63.4856 48.0688 60.6449 48.0688C60.6447 48.0688 60.6444 48.0688 60.6442 48.0688C60.5327 48.0688 60.4244 48.068 60.3187 48.0662C60.3205 48.0638 60.3222 48.0613 60.3239 48.0588C60.494 47.8242 60.6614 47.586 60.8263 47.3447C60.8465 47.3152 60.8663 47.285 60.8865 47.2556C61.0259 47.0502 61.1632 46.8421 61.299 46.6319C61.3339 46.5779 61.3689 46.5238 61.4035 46.4695C61.5538 46.2337 61.7025 45.9962 61.8483 45.7547C61.8712 45.7169 61.8934 45.6782 61.9161 45.6401C62.0355 45.4406 62.1536 45.2392 62.27 45.0358C62.2973 44.9883 62.3253 44.9428 62.3527 44.8949C64.7982 44.8458 68.2265 44.3325 71.3961 42.2971C74.6412 40.2133 77.3527 37.3097 79.4549 33.6673C81.6569 29.8515 83.1311 25.3131 83.8367 20.1784C84.2481 17.1811 83.7705 14.874 82.4166 13.3212C81.171 11.8927 79.2623 11.1685 76.7436 11.1685C74.7754 11.1685 72.677 11.6158 70.8964 12.1391C70.979 11.244 71.0498 10.3854 71.1104 9.56939C71.1121 9.54665 71.114 9.52373 71.1158 9.50116C72.4261 9.03957 75.2918 8.16497 78.1933 8.16497C83.6191 8.16497 86.2913 11.116 86.3628 17.1863C86.5637 34.352 76.4164 42.3249 72.0443 44.9561Z" fill="white"/>
</svg>
