<svg width="89" height="89" viewBox="0 0 89 89" fill="none" xmlns="http://www.w3.org/2000/svg">
<path d="M88.5579 17.1554C88.4701 9.66812 84.6385 5.54446 77.7687 5.54446C75.1097 5.54446 72.5476 6.16336 70.8727 6.67974C71.0395 3.61935 71.0421 1.73025 71.0421 1.63634L71.0423 0.326172H17.8633V1.63617C17.8633 1.68097 17.8678 3.59988 18.0365 6.68129C16.3617 6.16456 13.7972 5.54446 11.1357 5.54446C4.2661 5.54446 0.434312 9.66794 0.346439 17.1554C0.259944 24.5213 1.93987 31.078 5.33918 36.6438C8.67664 42.1083 12.9424 45.4011 15.9334 47.2008C20.7239 50.0837 25.5116 50.6888 28.6847 50.6888C29.4669 50.6888 30.2205 50.652 30.9254 50.5793C30.9721 50.5744 31.0154 50.5689 31.061 50.5639C32.5952 52.2161 34.2491 53.5395 36.0164 54.523C37.3191 55.2479 38.2253 56.5121 38.5358 57.9651C36.7791 58.5118 35.5002 60.1529 35.5002 62.087C35.5002 64.0645 36.8377 65.7346 38.655 66.2429V71.741H31.5662V77.4788H24.5708V88.5347H64.3344V77.4788H57.339V71.741H50.2503V66.2429C52.0677 65.7344 53.4053 64.0645 53.4053 62.087C53.4053 60.1528 52.1263 58.5118 50.3697 57.9651C50.6802 56.5121 51.5861 55.2481 52.889 54.523C54.652 53.5421 56.3173 52.2114 57.8477 50.5646C58.3899 50.6247 59.203 50.6887 60.2196 50.6887C60.2199 50.6887 60.2197 50.6887 60.2202 50.6887C63.393 50.6887 68.1805 50.0832 72.9706 47.2006C75.9614 45.4008 80.2274 42.1081 83.5649 36.6436C86.9647 31.078 88.6444 24.5211 88.5579 17.1554ZM68.4005 2.94617C68.3888 3.42534 68.3702 4.0277 68.3416 4.73275H20.5691C20.5395 4.02787 20.5197 3.42465 20.5069 2.94617H68.4005ZM70.1825 14.975C71.9575 14.3841 74.2581 13.7883 76.3189 13.7883C78.0469 13.7883 79.2911 14.2105 80.017 15.043C80.8513 16 81.1203 17.6075 80.816 19.8216C79.5491 29.0441 75.5501 36.2432 69.5555 40.0922C67.4674 41.433 65.2185 41.987 63.3339 42.1838C67.3204 33.8046 69.2498 23.2915 70.1825 14.975ZM20.0709 24.1005C21.3595 31.0123 23.1387 36.9477 25.3593 41.7416C25.428 41.8905 25.498 42.0371 25.5676 42.1838C23.6836 41.9865 21.4362 41.4327 19.3489 40.0925C13.3544 36.2434 9.35533 29.0445 8.0884 19.8219C7.78429 17.6077 8.05308 16 8.88753 15.0434C9.61343 14.2108 10.8578 13.7888 12.5856 13.7888C14.6482 13.7888 16.9508 14.3855 18.7266 14.9767C19.0438 17.8131 19.4774 20.9178 20.0709 24.1005ZM28.6847 48.0688C25.8438 48.0688 21.5595 47.5287 17.2846 44.9561C12.9125 42.325 2.76484 34.352 2.96644 17.1863C3.03777 11.1156 5.70997 8.16463 11.1357 8.16463C14.0374 8.16463 16.9033 9.03939 18.2133 9.50081C18.2786 10.3797 18.3518 11.2612 18.4328 12.1391C16.6521 11.616 14.554 11.1683 12.5856 11.1683C10.0669 11.1683 8.15836 11.8925 6.91263 13.3209C5.55852 14.8738 5.08073 17.1809 5.49253 20.1781C6.19793 25.3128 7.67213 29.8512 9.8743 33.667C11.9765 37.3097 14.688 40.2133 17.9331 42.2968C21.1028 44.3322 24.531 44.8454 26.9765 44.8945C26.9847 44.909 26.9932 44.9228 27.0015 44.9371C27.1355 45.172 27.2709 45.4028 27.4077 45.6308C27.4503 45.7019 27.4932 45.7726 27.5361 45.8431C27.6665 46.0574 27.798 46.2697 27.9308 46.4776C27.9808 46.5559 28.0315 46.6322 28.0818 46.7097C28.1722 46.8488 28.2632 46.9866 28.3549 47.1229C28.4434 47.2547 28.5323 47.3851 28.6218 47.5142C28.7095 47.6405 28.7973 47.7661 28.8859 47.89C28.9274 47.9482 28.9683 48.0087 29.0098 48.0662C28.9043 48.068 28.796 48.0688 28.6847 48.0688ZM61.7146 80.0991V85.9147H27.1912V80.0991H31.5664H57.3392H61.7146ZM50.2506 74.3613H54.719V77.4789H34.1865V74.3613H38.6552H50.2506ZM41.2752 71.7412V66.403H47.6304V71.7412H41.2752ZM50.7854 62.087C50.7854 63.0221 50.0246 63.7828 49.0897 63.7828H39.8161C38.881 63.7828 38.1203 63.0221 38.1203 62.087C38.1203 61.1519 38.881 60.3912 39.8161 60.3912H49.0897C50.0247 60.3912 50.7854 61.1519 50.7854 62.087ZM57.3387 47.11C57.3242 47.1288 57.3097 47.1475 57.2953 47.1663C57.1664 47.3331 57.0365 47.4958 56.9059 47.6562C56.8738 47.6953 56.8423 47.7351 56.8101 47.774C56.6666 47.9484 56.5218 48.119 56.3764 48.2854C56.3693 48.2933 56.3628 48.3016 56.3557 48.3095C54.8948 49.9762 53.3 51.2962 51.6154 52.2335C49.539 53.3886 48.1272 55.4402 47.7388 57.7711H41.1669C40.7784 55.44 39.3666 53.3886 37.2902 52.2335C35.6644 51.3291 34.196 50.1201 32.8695 48.6753L32.549 48.3097C31.2464 46.8241 30.0186 45.0243 28.8999 42.9607L28.5572 42.3281C22.9235 31.4427 21.2194 15.7098 20.7056 7.35275H68.2096C68.1878 7.7163 68.1638 8.09174 68.1373 8.48166C68.1361 8.49975 68.1347 8.51836 68.1335 8.53645C68.1045 8.95893 68.0735 9.38262 68.0406 9.80665C68.0397 9.81905 68.0387 9.83146 68.0378 9.84404C67.9331 11.188 67.809 12.5369 67.6676 13.8698L67.5819 14.6758C66.63 23.2095 64.6194 34.0812 60.3796 42.2702L60.0052 42.9605C59.1721 44.4967 58.2786 45.8865 57.3387 47.11ZM71.62 44.9561C67.3447 47.5288 63.0613 48.0688 60.2206 48.0688C60.2204 48.0688 60.2201 48.0688 60.2199 48.0688C60.1084 48.0688 60 48.068 59.8944 48.0662C59.8961 48.0638 59.8979 48.0613 59.8996 48.0588C60.0697 47.8242 60.2371 47.586 60.402 47.3447C60.4222 47.3152 60.442 47.285 60.4622 47.2556C60.6015 47.0502 60.7389 46.8421 60.8746 46.6319C60.9096 46.5779 60.9446 46.5238 60.9792 46.4695C61.1295 46.2337 61.2782 45.9962 61.4239 45.7547C61.4469 45.7169 61.4691 45.6782 61.4918 45.6401C61.6112 45.4406 61.7293 45.2392 61.8457 45.0358C61.873 44.9883 61.901 44.9428 61.9284 44.8949C64.3739 44.8458 67.8021 44.3325 70.9718 42.2971C74.2169 40.2133 76.9284 37.3097 79.0306 33.6673C81.2326 29.8515 82.7068 25.3131 83.4124 20.1784C83.8238 17.1811 83.3462 14.874 81.9923 13.3212C80.7467 11.8927 78.838 11.1685 76.3193 11.1685C74.3511 11.1685 72.2527 11.6158 70.4721 12.1391C70.5546 11.244 70.6255 10.3854 70.6861 9.56939C70.6878 9.54665 70.6897 9.52373 70.6914 9.50116C72.0018 9.03957 74.8675 8.16497 77.769 8.16497C83.1948 8.16497 85.867 11.116 85.9385 17.1863C86.1394 34.352 75.9921 42.3249 71.62 44.9561Z" fill="#4A7446"/>
<path d="M33.4866 42.7481L31.2983 44.1898C32.0454 45.324 32.8484 46.3546 33.6849 47.2526L35.6022 45.4665C34.8653 44.6755 34.1535 43.7607 33.4866 42.7481Z" fill="#4A7446"/>
<path d="M27.8626 28.221L25.3081 28.8037C26.5645 34.3113 28.2419 38.9348 30.2933 42.5457L32.5714 41.2514C30.6465 37.8631 29.0622 33.4791 27.8626 28.221Z" fill="#4A7446"/>
<path d="M76.7869 57.7851L76.785 55.1649L74.5732 55.1663L74.5716 52.9545L71.9515 52.9562L71.953 55.1682L69.7412 55.1698L69.7429 57.7899L71.9548 57.7884L71.9563 60L74.5765 59.9983L74.5749 57.7865L76.7869 57.7851Z" fill="#4A7446"/>
<path d="M19.7762 71.3912L19.7735 68.771L17.9174 68.7729L17.9156 66.9167L15.2954 66.9195L15.2973 68.7755L13.4409 68.7774L13.4438 71.3976L15.2999 71.3957L15.3018 73.252L17.9219 73.2493L17.92 71.3931L19.7762 71.3912Z" fill="#4A7446"/>
<path d="M11.2309 49.9719H8.75928V52.5921H11.2309V49.9719Z" fill="#4A7446"/>
<path d="M27.1162 57.7238H24.6445V60.3439H27.1162V57.7238Z" fill="#4A7446"/>
<path d="M66.9546 65.6069H64.4829V68.2271H66.9546V65.6069Z" fill="#4A7446"/>
</svg>
