<svg width="104" height="89" viewBox="0 0 104 89" fill="none" xmlns="http://www.w3.org/2000/svg">
<path d="M101.476 42.0585C100.687 41.241 99.7106 40.6764 98.6401 40.4054C99.2752 39.396 99.5939 38.2198 99.55 36.9958C99.4365 33.7999 96.6917 31.1992 93.4316 31.1992H81.523L81.5112 13.357C81.5112 9.48848 78.3639 6.34041 74.4946 6.34041C70.6253 6.34041 67.478 9.48848 67.478 13.357V18.0791C67.478 19.2906 67.2219 20.4598 66.7505 21.5271C57.921 21.1959 50.8386 13.913 50.8386 5.00365V2.8321C50.8386 1.44993 49.7149 0.326172 48.3327 0.326172H22.4715C21.0893 0.326172 19.9656 1.44993 19.9656 2.8321V4.53614C19.9656 13.6562 12.5464 21.0753 3.42641 21.0753H3.02546C1.64329 21.0753 0.519531 22.199 0.519531 23.5812V53.6524C0.519531 72.887 16.1675 88.535 35.4021 88.535C49.0461 88.535 61.3729 80.6193 67.0739 68.287H88.0345C89.4026 68.287 90.7401 67.7232 91.7041 66.7412C92.6532 65.7741 93.163 64.5093 93.138 63.1796C93.1254 62.503 92.9759 61.8578 92.7159 61.2704H93.4316C96.6917 61.2704 99.4365 58.6697 99.55 55.4739C99.5939 54.2397 99.2705 53.0549 98.6244 52.04C101.146 51.3618 103.065 49.1135 103.159 46.4525C103.217 44.8041 102.62 43.2434 101.476 42.0585ZM35.4021 85.5278C17.8261 85.5278 3.52665 71.2284 3.52665 53.6524V24.0824C14.2583 24.0276 22.9727 15.2803 22.9727 4.53614V3.33329H47.8315V5.00365C47.8315 14.8755 55.1872 23.0597 64.705 24.3667C64.344 24.6956 63.9541 24.9986 63.532 25.2672L55.318 30.4937C54.5928 30.9557 53.7557 31.1992 52.8966 31.1992H51.0469C50.4862 29.3456 48.7634 27.9917 46.7289 27.9917H38.309C36.3489 27.9917 34.6777 29.2485 34.0567 30.9988H26.6815C24.5256 30.9988 22.7722 32.7529 22.7722 34.908V60.7692C22.7722 62.9251 24.5256 64.6785 26.6815 64.6785H33.7983V79.4705C20.2905 78.689 9.54088 67.453 9.54088 53.7526V28.8398C19.8685 28.088 28.0989 19.6586 28.5343 9.24729H33.7983V22.4786C33.7983 23.3095 34.4718 23.9822 35.3019 23.9822C36.132 23.9822 36.8054 23.3095 36.8054 22.4786V7.74373C36.8054 6.91286 36.132 6.24017 35.3019 6.24017H27.0487C26.2186 6.24017 25.5452 6.91286 25.5452 7.74373V8.37883C25.5452 18.0329 17.6914 25.8867 8.03733 25.8867C7.20724 25.8867 6.53377 26.5594 6.53377 27.3902V53.7526C6.53377 69.6152 19.4393 82.5207 35.3019 82.5207C36.132 82.5207 36.8054 81.848 36.8054 81.0172V67.5313C37.157 67.6292 37.5259 67.6856 37.908 67.6856H46.7289C48.2027 67.6856 49.5136 66.9753 50.3367 65.879L51.9405 66.7874C53.6711 67.7686 55.6367 68.287 57.625 68.287H63.727C58.2797 78.8315 47.3985 85.5278 35.4021 85.5278ZM33.7983 61.6714H26.6815C26.1842 61.6714 25.7793 61.2665 25.7793 60.7692V34.908C25.7793 34.4108 26.1842 34.0059 26.6815 34.0059H33.7983V61.6714ZM97.0402 49.242H85.3203C84.4902 49.242 83.8167 49.9146 83.8167 50.7455C83.8167 51.5764 84.4902 52.2491 85.3203 52.2491H93.5397C94.3627 52.2491 95.1318 52.5756 95.7042 53.1684C96.2759 53.7605 96.5742 54.542 96.5445 55.3674C96.4881 56.9641 95.091 58.2633 93.4316 58.2633H88.1269C88.0932 58.2633 88.0595 58.2664 88.0267 58.268C87.9938 58.2664 87.9601 58.2633 87.9264 58.2633H85.3203C84.4902 58.2633 83.8167 58.936 83.8167 59.7669C83.8167 60.5977 84.4902 61.2704 85.3203 61.2704H87.9264C87.9601 61.2704 87.9938 61.2673 88.0267 61.2657C88.0595 61.2673 88.0932 61.2704 88.1269 61.2704C89.2115 61.2704 90.1113 62.1522 90.1316 63.2368C90.141 63.7521 89.9374 64.2486 89.5584 64.6354C89.1559 65.045 88.6007 65.2799 88.0353 65.2799H57.625C56.1551 65.2799 54.7025 64.897 53.4237 64.1718L51.2396 62.9337V59.5327C51.2396 58.7026 50.5661 58.0292 49.736 58.0292C48.9059 58.0292 48.2325 58.7026 48.2325 59.5327V63.1749C48.2325 64.0042 47.5582 64.6785 46.7289 64.6785H37.908C37.3003 64.6785 36.8054 64.1836 36.8054 63.5759V32.5023C36.8054 31.673 37.4797 30.9988 38.309 30.9988H46.7289C47.5582 30.9988 48.2325 31.673 48.2325 32.5023V52.5161C48.2325 53.347 48.9059 54.0197 49.736 54.0197C50.5661 54.0197 51.2396 53.347 51.2396 52.5161V34.2064H52.8966C54.3281 34.2064 55.7244 33.7999 56.932 33.0309L65.1467 27.8037C68.4898 25.6768 70.4851 22.0409 70.4851 18.0791V13.357C70.4851 11.1463 72.2839 9.34752 74.4946 9.34752C76.7053 9.34752 78.5041 11.1463 78.5041 13.3578L78.5159 31.702C78.5166 33.0826 79.6412 34.2064 81.0218 34.2064H93.4316C95.091 34.2064 96.4881 35.5055 96.5445 37.1023C96.5742 37.9277 96.2751 38.7092 95.7042 39.3012C95.1318 39.894 94.3627 40.2206 93.5397 40.2206H85.3203C84.4902 40.2206 83.8167 40.8933 83.8167 41.7242C83.8167 42.555 84.4902 43.2277 85.3203 43.2277H97.1482C97.9713 43.2277 98.7403 43.5543 99.3127 44.1471C99.8844 44.7391 100.183 45.5206 100.153 46.346C100.097 47.9428 98.6996 49.242 97.0402 49.242Z" fill="white"/>
</svg>
