<svg width="103" height="89" viewBox="0 0 103 89" fill="none" xmlns="http://www.w3.org/2000/svg">
<path d="M101.052 42.0585C100.263 41.241 99.2862 40.6764 98.2157 40.4054C98.8508 39.396 99.1696 38.2198 99.1257 36.9958C99.0122 33.7999 96.2674 31.1992 93.0073 31.1992H81.0987L81.0869 13.357C81.0869 9.48848 77.9396 6.34041 74.0703 6.34041C70.201 6.34041 67.0537 9.48848 67.0537 13.357V18.0791C67.0537 19.2906 66.7976 20.4598 66.3262 21.5271C57.4967 21.1959 50.4143 13.913 50.4143 5.00365V2.8321C50.4143 1.44993 49.2906 0.326172 47.9084 0.326172H22.0472C20.665 0.326172 19.5412 1.44993 19.5412 2.8321V4.53614C19.5412 13.6562 12.1221 21.0753 3.0021 21.0753H2.60115C1.21897 21.0753 0.0952148 22.199 0.0952148 23.5812V53.6524C0.0952148 72.887 15.7432 88.535 34.9778 88.535C48.6218 88.535 60.9486 80.6193 66.6496 68.287H87.6102C88.9783 68.287 90.3158 67.7232 91.2798 66.7412C92.2289 65.7741 92.7387 64.5093 92.7137 63.1796C92.7011 62.503 92.5516 61.8578 92.2916 61.2704H93.0073C96.2674 61.2704 99.0122 58.6697 99.1257 55.4739C99.1696 54.2397 98.8461 53.0549 98.2001 52.04C100.722 51.3618 102.64 49.1135 102.734 46.4525C102.793 44.8041 102.195 43.2434 101.052 42.0585ZM34.9778 85.5278C17.4018 85.5278 3.10233 71.2284 3.10233 53.6524V24.0824C13.834 24.0276 22.5484 15.2803 22.5484 4.53614V3.33329H47.4072V5.00365C47.4072 14.8755 54.7629 23.0597 64.2807 24.3667C63.9197 24.6956 63.5297 24.9986 63.1076 25.2672L54.8937 30.4937C54.1685 30.9557 53.3314 31.1992 52.4723 31.1992H50.6226C50.0619 29.3456 48.3391 27.9917 46.3046 27.9917H37.8847C35.9246 27.9917 34.2534 29.2485 33.6324 30.9988H26.2571C24.1013 30.9988 22.3479 32.7529 22.3479 34.908V60.7692C22.3479 62.9251 24.1013 64.6785 26.2571 64.6785H33.374V79.4705C19.8662 78.689 9.11657 67.453 9.11657 53.7526V28.8398C19.4441 28.088 27.6746 19.6586 28.11 9.24729H33.374V22.4786C33.374 23.3095 34.0475 23.9822 34.8775 23.9822C35.7076 23.9822 36.3811 23.3095 36.3811 22.4786V7.74373C36.3811 6.91286 35.7076 6.24017 34.8775 6.24017H26.6244C25.7943 6.24017 25.1209 6.91286 25.1209 7.74373V8.37883C25.1209 18.0329 17.2671 25.8867 7.61301 25.8867C6.78292 25.8867 6.10945 26.5594 6.10945 27.3902V53.7526C6.10945 69.6152 19.015 82.5207 34.8775 82.5207C35.7076 82.5207 36.3811 81.848 36.3811 81.0172V67.5313C36.7327 67.6292 37.1016 67.6856 37.4837 67.6856H46.3046C47.7784 67.6856 49.0893 66.9753 49.9123 65.879L51.5161 66.7874C53.2468 67.7686 55.2124 68.287 57.2007 68.287H63.3026C57.8554 78.8315 46.9741 85.5278 34.9778 85.5278ZM33.374 61.6714H26.2571C25.7599 61.6714 25.355 61.2665 25.355 60.7692V34.908C25.355 34.4108 25.7599 34.0059 26.2571 34.0059H33.374V61.6714ZM96.6159 49.242H84.8959C84.0658 49.242 83.3924 49.9146 83.3924 50.7455C83.3924 51.5764 84.0658 52.2491 84.8959 52.2491H93.1154C93.9384 52.2491 94.7074 52.5756 95.2799 53.1684C95.8516 53.7605 96.1499 54.542 96.1202 55.3674C96.0638 56.9641 94.6667 58.2633 93.0073 58.2633H87.7026C87.6689 58.2633 87.6352 58.2664 87.6023 58.268C87.5695 58.2664 87.5358 58.2633 87.5021 58.2633H84.8959C84.0658 58.2633 83.3924 58.936 83.3924 59.7669C83.3924 60.5977 84.0658 61.2704 84.8959 61.2704H87.5021C87.5358 61.2704 87.5695 61.2673 87.6023 61.2657C87.6352 61.2673 87.6689 61.2704 87.7026 61.2704C88.7872 61.2704 89.687 62.1522 89.7073 63.2368C89.7167 63.7521 89.5131 64.2486 89.1341 64.6354C88.7316 65.045 88.1764 65.2799 87.611 65.2799H57.2007C55.7308 65.2799 54.2782 64.897 52.9993 64.1718L50.8153 62.9337V59.5327C50.8153 58.7026 50.1418 58.0292 49.3117 58.0292C48.4816 58.0292 47.8082 58.7026 47.8082 59.5327V63.1749C47.8082 64.0042 47.1339 64.6785 46.3046 64.6785H37.4837C36.876 64.6785 36.3811 64.1836 36.3811 63.5759V32.5023C36.3811 31.673 37.0554 30.9988 37.8847 30.9988H46.3046C47.1339 30.9988 47.8082 31.673 47.8082 32.5023V52.5161C47.8082 53.347 48.4816 54.0197 49.3117 54.0197C50.1418 54.0197 50.8153 53.347 50.8153 52.5161V34.2064H52.4723C53.9038 34.2064 55.3001 33.7999 56.5076 33.0309L64.7224 27.8037C68.0655 25.6768 70.0608 22.0409 70.0608 18.0791V13.357C70.0608 11.1463 71.8596 9.34752 74.0703 9.34752C76.281 9.34752 78.0798 11.1463 78.0798 13.3578L78.0915 31.702C78.0923 33.0826 79.2169 34.2064 80.5975 34.2064H93.0073C94.6667 34.2064 96.0638 35.5055 96.1202 37.1023C96.1499 37.9277 95.8508 38.7092 95.2799 39.3012C94.7074 39.894 93.9384 40.2206 93.1154 40.2206H84.8959C84.0658 40.2206 83.3924 40.8933 83.3924 41.7242C83.3924 42.555 84.0658 43.2277 84.8959 43.2277H96.7239C97.547 43.2277 98.316 43.5543 98.8884 44.1471C99.4601 44.7391 99.7585 45.5206 99.7287 46.346C99.6723 47.9428 98.2753 49.242 96.6159 49.242Z" fill="#4A7446"/>
</svg>
