<svg width="17" height="15" viewBox="0 0 17 15" fill="none" xmlns="http://www.w3.org/2000/svg">
<path d="M10.4806 3.87471C10.0972 3.87471 9.78607 3.56358 9.78607 3.18022V2.13849H7.00812V3.18022C7.00812 3.56358 6.69699 3.87471 6.31363 3.87471C5.93027 3.87471 5.61914 3.56358 5.61914 3.18022V2.13849C5.61914 1.37247 6.2421 0.749512 7.00812 0.749512H9.78607C10.5521 0.749512 11.175 1.37247 11.175 2.13849V3.18022C11.175 3.56358 10.8639 3.87471 10.4806 3.87471Z" fill="white"/>
<path d="M8.89041 10.0417C8.76541 10.0903 8.58484 10.125 8.39733 10.125C8.20982 10.125 8.02925 10.0903 7.86257 10.0278L0.0634766 7.43042V12.7294C0.0634766 13.785 0.917696 14.6392 1.97332 14.6392H14.8213C15.877 14.6392 16.7312 13.785 16.7312 12.7294V7.43042L8.89041 10.0417Z" fill="white"/>
<path d="M16.7312 4.74285V6.33322L8.564 9.05562C8.50845 9.07645 8.45289 9.0834 8.39733 9.0834C8.34177 9.0834 8.28621 9.07645 8.23065 9.05562L0.0634766 6.33322V4.74285C0.0634766 3.68723 0.917696 2.83301 1.97332 2.83301H14.8213C15.877 2.83301 16.7312 3.68723 16.7312 4.74285Z" fill="white"/>
</svg>
