<svg width="10" height="15" viewBox="0 0 10 15" fill="none" xmlns="http://www.w3.org/2000/svg">
<path d="M4.95101 0.749512C2.25604 0.749512 0.0634766 2.91534 0.0634766 5.57744C0.0634766 8.92342 4.95582 14.639 4.95582 14.639C4.95582 14.639 9.83855 8.75887 9.83855 5.57744C9.83855 2.91534 7.64606 0.749512 4.95101 0.749512ZM6.42568 6.99106C6.01906 7.39264 5.48508 7.59347 4.95101 7.59347C4.41703 7.59347 3.88288 7.39264 3.47643 6.99106C2.66327 6.18791 2.66327 4.88102 3.47643 4.07777C3.87018 3.68866 4.39394 3.47435 4.95101 3.47435C5.50808 3.47435 6.03176 3.68874 6.42568 4.07777C7.23884 4.88102 7.23884 6.18791 6.42568 6.99106Z" fill="white"/>
</svg>
