<svg width="18" height="15" viewBox="0 0 18 15" fill="none" xmlns="http://www.w3.org/2000/svg">
<path d="M8.96366 6.43164C7.38377 6.43164 6.10303 7.70362 6.10303 9.27268C6.10303 10.8417 7.38377 12.1137 8.96366 12.1137C10.5435 12.1137 11.8243 10.8417 11.8243 9.27268C11.8224 7.70441 10.5427 6.43355 8.96366 6.43164ZM8.96366 10.2197C8.43703 10.2197 8.01011 9.7957 8.01011 9.27268C8.01011 8.74966 8.43703 8.32566 8.96366 8.32566C9.49028 8.32566 9.9172 8.74966 9.9172 9.27268C9.9172 9.7957 9.49028 10.2197 8.96366 10.2197Z" fill="white"/>
<path d="M8.96336 9.58837C9.1389 9.58837 9.2812 9.44704 9.2812 9.2727C9.2812 9.09836 9.1389 8.95703 8.96336 8.95703C8.78781 8.95703 8.64551 9.09836 8.64551 9.2727C8.64551 9.44704 8.78781 9.58837 8.96336 9.58837Z" fill="white"/>
<path d="M17.7465 3.55898C16.6794 2.7133 13.6875 0.749512 8.96337 0.749512C4.2392 0.749512 1.2473 2.7133 0.180286 3.55898C0.0777791 3.64148 0.0378309 3.77864 0.0801638 3.90275L1.13256 6.72579C1.18125 6.88501 1.34544 6.97991 1.50889 6.94328L4.58502 6.23808C4.72964 6.20491 4.83189 6.07676 4.83135 5.92935V4.5183C4.83247 4.21667 4.97707 3.93331 5.22135 3.75406C6.31686 2.99566 7.6285 2.6064 8.96337 2.64354C10.2981 2.60642 11.6096 2.99556 12.7051 3.75375C12.9495 3.93303 13.0942 4.21651 13.0954 4.5183V5.92935C13.0954 6.07628 13.1976 6.20375 13.3417 6.23681L16.4178 6.94202C16.5775 6.97849 16.739 6.88841 16.7907 6.73399L17.8498 3.89296C17.8878 3.77113 17.8468 3.6386 17.7465 3.55898Z" fill="white"/>
<path d="M13.9301 7.01974L13.1991 6.85243C12.7656 6.75446 12.4585 6.37094 12.4601 5.92941V4.51836C12.4602 4.41666 12.411 4.32112 12.3278 4.26172C11.3418 3.58359 10.1626 3.2377 8.96375 3.27494C7.76483 3.23777 6.58555 3.58365 5.59933 4.26172C5.51632 4.32119 5.46722 4.41671 5.46742 4.51836V5.92941C5.46898 6.37094 5.16192 6.75446 4.72843 6.85243L3.99738 7.01974L0.749291 12.1276C0.717133 12.1783 0.699953 12.2369 0.699707 12.2968V14.3234C0.699707 14.4977 0.842012 14.6391 1.01755 14.6391H16.9099C17.0855 14.6391 17.2278 14.4977 17.2278 14.3234V12.2968C17.2274 12.2364 17.21 12.1774 17.1776 12.1263L13.9301 7.01974ZM8.96375 12.7451C7.03278 12.7451 5.46742 11.1904 5.46742 9.27268C5.46742 7.35494 7.03278 5.8003 8.96375 5.8003C10.8947 5.8003 12.4601 7.35494 12.4601 9.27268C12.4578 11.1895 10.8938 12.7428 8.96375 12.7451Z" fill="white"/>
</svg>
