<svg width="104" height="69" viewBox="0 0 104 69" fill="none" xmlns="http://www.w3.org/2000/svg">
<path d="M103.35 17.998C103.348 16.4332 102.888 14.8464 101.87 13.5383L93.7035 3.08897C92.3356 1.35211 90.2543 0.467778 88.1744 0.464355C86.9366 0.464355 85.6763 0.781612 84.5626 1.47611L76.5998 6.43022C75.7624 6.96428 74.3267 7.33086 72.9399 7.32139C71.8625 7.32602 70.8214 7.11043 70.1339 6.77083L62.3362 2.99375C61.0784 2.38822 59.6764 2.14002 58.2664 2.1376C56.2415 2.14706 54.1908 2.64469 52.5429 3.78669L51.633 4.42502C50.9057 4.06207 49.7943 3.50909 48.5354 2.88263C47.0256 2.14243 45.2503 1.8439 43.457 1.83806C41.8371 1.84269 40.2176 2.09231 38.7956 2.693L33.4844 4.95929C32.62 5.33412 31.2451 5.5789 29.8794 5.57286C28.5138 5.5787 27.1413 5.33391 26.2769 4.95929L20.9608 2.69179C19.9912 2.27831 18.9546 2.10157 17.9274 2.10036C16.7445 2.10157 15.5687 2.33468 14.4758 2.77735C13.3843 3.22243 12.3712 3.87949 11.5644 4.78113L1.88562 15.6206C0.812872 16.8185 0.280019 18.3271 0.282233 19.8121C0.280019 21.583 1.03773 23.3595 2.4992 24.6046L11.5277 32.3073L7.24476 36.7753C6.06411 38.0075 5.47629 39.605 5.47629 41.1847C5.47408 42.8653 6.14161 44.5623 7.46378 45.8118L8.33261 46.6374C9.15131 47.414 10.1351 47.908 11.1646 48.1715C10.6482 49.1213 10.366 50.1626 10.3682 51.206C10.366 52.8879 11.0335 54.5837 12.3533 55.8346L12.351 55.8334L13.2225 56.6626C14.4629 57.8384 16.071 58.424 17.6552 58.423C18.5067 58.4242 19.3593 58.2531 20.1605 57.9181C20.4417 59.0589 21.0224 60.1433 21.936 61.0099L22.8074 61.8391C24.0479 63.0149 25.6533 63.6005 27.2401 63.5995C28.4806 63.6007 29.7267 63.2352 30.7994 62.5256C31.1132 63.5351 31.6509 64.4919 32.4694 65.2695L33.3409 66.0987C34.5787 67.2745 36.1867 67.8601 37.7714 67.8591C39.4589 67.8603 41.1632 67.1974 42.4219 65.8833L46.2073 61.9305L51.35 66.6901C52.581 67.8319 54.161 68.4 55.7207 68.3966C57.4342 68.4002 59.1628 67.7138 60.4242 66.3634L61.2451 65.4839C61.9537 64.7228 62.4163 63.822 62.6846 62.8817L64.6768 64.7204C65.91 65.8576 67.4878 66.4232 69.0453 66.422C70.761 66.4232 72.4944 65.7368 73.757 64.3854L74.5733 63.5069C75.516 62.4998 76.0466 61.2523 76.2105 59.9783C76.7363 60.1129 77.2692 60.2043 77.8066 60.2043C79.5224 60.2043 81.251 59.5191 82.5148 58.1689L83.3335 57.2904C84.4777 56.0641 85.047 54.4913 85.0446 52.9406C85.0446 52.4593 84.9755 51.9804 84.8688 51.5071C86.2918 51.3185 87.6716 50.6838 88.7208 49.5571L89.5417 48.6776C90.6859 47.4513 91.2528 45.8785 91.2528 44.3266C91.255 42.6192 90.5666 40.8962 89.2079 39.6409L87.6726 38.2227L101.53 22.9014C102.774 21.522 103.348 19.7465 103.35 17.998ZM12.7659 44.9114C12.0318 44.9092 11.3137 44.6467 10.7527 44.115L9.88245 43.2895C9.28035 42.7202 8.98302 41.9627 8.98061 41.1849C8.98302 40.4553 9.24411 39.7431 9.7818 39.1821L18.5538 30.0281C19.1254 29.4319 19.8879 29.1334 20.6702 29.1323C21.4021 29.1336 22.1177 29.3971 22.6834 29.9299L23.55 30.7567C23.55 30.7567 24.4472 32.0835 24.4495 32.8623C24.4472 33.4455 24.2715 34.0136 23.9307 34.5056C23.9015 34.5348 14.4629 44.3715 14.4629 44.3715C13.9617 44.7262 13.369 44.9088 12.7659 44.9114ZM19.7717 54.042C19.2014 54.6358 18.4401 54.9332 17.6578 54.9356C16.9237 54.9344 16.2078 54.6709 15.6446 54.1392L14.7731 53.311L14.7709 53.3098C14.1737 52.743 13.8737 51.983 13.8737 51.2052C13.8737 50.4757 14.1372 49.7635 14.6723 49.2024C14.6723 49.2024 26.3653 37.0305 26.4637 36.9132C27.0225 36.3757 27.7426 36.0981 28.4862 36.0969C29.2204 36.0981 29.9362 36.3604 30.4995 36.8932L31.3709 37.7224C31.9704 38.2893 32.2681 39.0482 32.2703 39.8271C32.2679 40.5566 32.0046 41.2698 31.4691 41.8308L19.7717 54.042ZM29.3552 59.2171C28.7862 59.8124 28.025 60.1101 27.2426 60.1123C26.5084 60.1111 25.7926 59.8476 25.2293 59.3148L24.3554 58.4866C23.756 57.9185 23.456 57.1598 23.456 56.3819C23.456 55.7309 23.6775 55.0994 24.1012 54.5736L32.2444 46.0743C32.7937 45.5789 33.4822 45.3178 34.1956 45.3178C34.9298 45.319 35.6456 45.5813 36.2089 46.1142L37.0827 46.9434C37.68 47.5103 37.9799 48.2692 37.9822 49.0468C37.9797 49.7777 37.714 50.491 37.181 51.0506L29.3552 59.2171ZM44.8279 58.3201L39.8867 63.4771C39.3174 64.072 38.5551 64.3697 37.7728 64.3719C37.0386 64.3707 36.3228 64.1072 35.7596 63.5744L34.8881 62.7462C34.2908 62.1793 33.9909 61.4194 33.9887 60.6415C33.9909 59.9106 34.2544 59.1974 34.7899 58.6388L39.7289 53.482C40.3004 52.8871 41.0629 52.5884 41.8452 52.5872C42.5771 52.5884 43.2952 52.8507 43.8584 53.3847L44.7323 54.2129C45.3296 54.7798 45.6271 55.5387 45.6295 56.3163C45.6267 57.0471 45.3632 57.7603 44.8279 58.3201ZM87.7537 44.3312C87.7527 45.0475 87.496 45.749 86.9761 46.3064L86.1574 47.1849C85.5859 47.7963 84.8104 48.1055 84.0165 48.1067C83.2962 48.1055 82.5911 47.8525 82.0314 47.3351L68.235 34.5762L65.8494 37.1306L80.6167 50.811C81.2317 51.3803 81.5407 52.1533 81.5453 52.9427C81.5407 53.6617 81.2864 54.3621 80.7676 54.9197L79.9514 55.7982C79.3799 56.4095 78.6044 56.7175 77.8105 56.7199C77.0902 56.7177 76.3828 56.4635 75.8276 55.9493L62.0276 43.1907L59.6443 45.745L71.8913 57.0704C72.4815 57.6361 72.7839 58.3891 72.7839 59.162C72.7839 59.8788 72.5297 60.5802 72.0109 61.1366L71.1922 62.015C70.6229 62.6264 69.8453 62.9356 69.0491 62.9378C68.3264 62.9356 67.6214 62.6814 67.064 62.1672L54.8416 50.8829H54.8394L54.8372 50.8807L52.4586 53.4397L52.461 53.4419L52.5067 53.4852L58.6284 59.135C59.1707 59.6924 59.4517 60.4068 59.4539 61.1458C59.4517 61.859 59.1997 62.557 58.6809 63.1136L57.8622 63.9931C57.2907 64.6044 56.5177 64.9112 55.726 64.9136C55.0057 64.9114 54.3005 64.6584 53.7431 64.142L48.4132 59.2066C48.877 58.2968 49.1358 57.3094 49.1358 56.3185C49.1381 54.6378 48.4705 52.9433 47.1508 51.6913L46.2769 50.8622C45.0391 49.6874 43.4333 49.1008 41.8488 49.103C41.7258 49.103 41.6018 49.1312 41.4812 49.1382C41.4812 49.109 41.4881 49.0784 41.4881 49.0492C41.4903 47.3685 39.503 44.4196 39.503 44.4196L38.6316 43.5929C37.7052 42.7144 36.5748 42.1664 35.3992 41.9462C35.6416 41.2599 35.7787 40.5455 35.7787 39.8299C35.7787 38.1492 35.1134 36.4532 33.7936 35.2027L32.9222 34.3735C31.6817 33.1977 30.0763 32.6109 28.4917 32.6121C28.3067 32.6121 28.1241 32.6495 27.9401 32.666C27.8898 31.0522 27.2397 29.4395 25.9749 28.238V28.2367L25.1059 27.4112C23.8655 26.2342 22.2601 25.6474 20.6754 25.6486C18.9852 25.6474 17.2836 26.3103 16.0249 27.6244L13.9542 29.7852L4.78159 21.9617C4.12232 21.3972 3.79319 20.6172 3.79077 19.8162C3.79299 19.145 4.02147 18.488 4.50862 17.9424L14.1871 7.10318C14.5712 6.67219 15.1393 6.28226 15.8046 6.01151C16.4699 5.74095 17.2252 5.59239 17.9314 5.5934C18.5464 5.5934 19.1235 5.70472 19.5851 5.90381L24.8988 8.1711C26.3967 8.80239 28.1357 9.06127 29.8835 9.06691C31.6332 9.06107 33.3701 8.80219 34.8682 8.1711L40.1794 5.90481C40.9981 5.5477 42.2335 5.32626 43.4621 5.33089C44.8207 5.32264 46.1815 5.60386 46.9708 6.00667C47.4721 6.25609 47.9475 6.49283 48.389 6.71406L42.9723 10.5217C41.2318 11.7457 40.2937 13.6921 40.2962 15.6562C40.2939 16.9562 40.706 18.2796 41.5446 19.4027L41.5424 19.4003L42.2579 20.3617C43.6165 22.1678 45.735 23.0964 47.8525 23.1011C49.0483 23.1011 50.2664 22.7989 51.352 22.1477L54.5914 20.2023C55.2521 19.7983 56.2497 19.543 57.2814 19.5476C58.4937 19.5406 59.7152 19.8991 60.4496 20.4388L69.4114 26.8638C71.406 28.2927 74.6546 30.9431 76.4549 32.6109L86.8279 42.2016C87.4421 42.7711 87.7513 43.5407 87.7537 44.3312ZM98.9291 20.5699L85.1104 35.8501L78.8363 30.0505C76.8712 28.2363 73.6306 25.5908 71.4569 24.0295L62.4974 17.6044C60.9784 16.5283 59.1185 16.063 57.2798 16.0562C55.7151 16.0608 54.1387 16.4018 52.7778 17.2121L49.5409 19.1575C49.0443 19.456 48.4589 19.6084 47.8507 19.6096C46.7637 19.6133 45.6758 19.106 45.0693 18.2802L44.3561 17.32L44.3536 17.3176C43.9742 16.8059 43.7974 16.2319 43.7948 15.651C43.7995 14.7725 44.2047 13.92 44.9896 13.366L54.5674 6.63636C55.3956 6.03687 56.869 5.61634 58.2684 5.62681C59.2405 5.62218 60.1692 5.81765 60.8051 6.13168L68.6026 9.90876C69.932 10.5471 71.4323 10.8082 72.9417 10.8118C74.8811 10.8024 76.8416 10.3808 78.4569 9.38879L86.4221 4.43368C86.9304 4.11642 87.5405 3.95236 88.1767 3.95236C89.2518 3.95015 90.3292 4.4373 90.9394 5.23246L99.1059 15.6818C99.5767 16.2803 99.8495 17.1245 99.8495 17.9996C99.8509 18.9781 99.5053 19.941 98.9291 20.5699Z" fill="white"/>
</svg>
