<svg width="104" height="69" viewBox="0 0 104 69" fill="none" xmlns="http://www.w3.org/2000/svg">
<path d="M103.926 17.998C103.923 16.4332 103.463 14.8464 102.446 13.5383L94.2792 3.08897C92.9113 1.35211 90.83 0.467778 88.7501 0.464355C87.5123 0.464355 86.2519 0.781612 85.1383 1.47611L77.1755 6.43022C76.3381 6.96428 74.9024 7.33086 73.5156 7.32139C72.4382 7.32602 71.3971 7.11043 70.7096 6.77083L62.9119 2.99375C61.6541 2.38822 60.252 2.14002 58.8421 2.1376C56.8172 2.14706 54.7665 2.64469 53.1186 3.78669L52.2087 4.42502C51.4814 4.06207 50.37 3.50909 49.111 2.88263C47.6012 2.14243 45.8259 1.8439 44.0327 1.83806C42.4128 1.84269 40.7933 2.09231 39.3713 2.693L34.0601 4.95929C33.1957 5.33412 31.8208 5.5789 30.4551 5.57286C29.0895 5.5787 27.717 5.33391 26.8526 4.95929L21.5365 2.69179C20.5668 2.27831 19.5303 2.10157 18.5031 2.10036C17.3202 2.10157 16.1444 2.33468 15.0515 2.77735C13.96 3.22243 12.9469 3.87949 12.14 4.78113L2.46131 15.6206C1.38856 16.8185 0.855703 18.3271 0.857917 19.8121C0.855703 21.583 1.61341 23.3595 3.07488 24.6046L12.1034 32.3073L7.82044 36.7753C6.63979 38.0075 6.05198 39.605 6.05198 41.1847C6.04976 42.8653 6.71729 44.5623 8.03946 45.8118L8.90829 46.6374C9.727 47.414 10.7108 47.908 11.7402 48.1715C11.2239 49.1213 10.9417 50.1626 10.9439 51.206C10.9417 52.8879 11.6092 54.5837 12.9289 55.8346L12.9267 55.8334L13.7982 56.6626C15.0386 57.8384 16.6466 58.424 18.2309 58.423C19.0824 58.4242 19.935 58.2531 20.7361 57.9181C21.0174 59.0589 21.5981 60.1433 22.5117 61.0099L23.3831 61.8391C24.6235 63.0149 26.2289 63.6005 27.8158 63.5995C29.0563 63.6007 30.3023 63.2352 31.3751 62.5256C31.6889 63.5351 32.2266 64.4919 33.0451 65.2695L33.9166 66.0987C35.1544 67.2745 36.7624 67.8601 38.3471 67.8591C40.0346 67.8603 41.7389 67.1974 42.9976 65.8833L46.7829 61.9305L51.9257 66.6901C53.1567 67.8319 54.7367 68.4 56.2964 68.3966C58.0099 68.4002 59.7385 67.7138 60.9999 66.3634L61.8208 65.4839C62.5294 64.7228 62.992 63.822 63.2603 62.8817L65.2524 64.7204C66.4856 65.8576 68.0635 66.4232 69.621 66.422C71.3367 66.4232 73.0701 65.7368 74.3327 64.3854L75.149 63.5069C76.0917 62.4998 76.6223 61.2523 76.7862 59.9783C77.312 60.1129 77.8448 60.2043 78.3823 60.2043C80.0981 60.2043 81.8267 59.5191 83.0904 58.1689L83.9092 57.2904C85.0534 56.0641 85.6227 54.4913 85.6202 52.9406C85.6202 52.4593 85.5512 51.9804 85.4445 51.5071C86.8675 51.3185 88.2473 50.6838 89.2965 49.5571L90.1174 48.6776C91.2616 47.4513 91.8285 45.8785 91.8285 44.3266C91.8307 42.6192 91.1422 40.8962 89.7836 39.6409L88.2483 38.2227L102.106 22.9014C103.35 21.522 103.924 19.7465 103.926 17.998ZM13.3416 44.9114C12.6075 44.9092 11.8894 44.6467 11.3284 44.115L10.4581 43.2895C9.85603 42.7202 9.55871 41.9627 9.55629 41.1849C9.55871 40.4553 9.8198 39.7431 10.3575 39.1821L19.1295 30.0281C19.701 29.4319 20.4636 29.1334 21.2458 29.1323C21.9778 29.1336 22.6934 29.3971 23.2591 29.9299L24.1257 30.7567C24.1257 30.7567 25.0229 32.0835 25.0251 32.8623C25.0229 33.4455 24.8472 34.0136 24.5064 34.5056C24.4772 34.5348 15.0386 44.3715 15.0386 44.3715C14.5374 44.7262 13.9447 44.9088 13.3416 44.9114ZM20.3474 54.042C19.7771 54.6358 19.0158 54.9332 18.2335 54.9356C17.4994 54.9344 16.7835 54.6709 16.2203 54.1392L15.3488 53.311L15.3466 53.3098C14.7493 52.743 14.4494 51.983 14.4494 51.2052C14.4494 50.4757 14.7129 49.7635 15.248 49.2024C15.248 49.2024 26.941 37.0305 27.0394 36.9132C27.5982 36.3757 28.3183 36.0981 29.0619 36.0969C29.7961 36.0981 30.5119 36.3604 31.0751 36.8932L31.9466 37.7224C32.5461 38.2893 32.8438 39.0482 32.846 39.8271C32.8436 40.5566 32.5803 41.2698 32.0448 41.8308L20.3474 54.042ZM29.9309 59.2171C29.3618 59.8124 28.6007 60.1101 27.8182 60.1123C27.0841 60.1111 26.3682 59.8476 25.805 59.3148L24.9311 58.4866C24.3316 57.9185 24.0317 57.1598 24.0317 56.3819C24.0317 55.7309 24.2531 55.0994 24.6769 54.5736L32.8201 46.0743C33.3694 45.5789 34.0579 45.3178 34.7713 45.3178C35.5055 45.319 36.2213 45.5813 36.7845 46.1142L37.6584 46.9434C38.2557 47.5103 38.5556 48.2692 38.5578 49.0468C38.5554 49.7777 38.2897 50.491 37.7566 51.0506L29.9309 59.2171ZM45.4036 58.3201L40.4624 63.4771C39.8931 64.072 39.1308 64.3697 38.3485 64.3719C37.6143 64.3707 36.8985 64.1072 36.3352 63.5744L35.4638 62.7462C34.8665 62.1793 34.5666 61.4194 34.5644 60.6415C34.5666 59.9106 34.8301 59.1974 35.3656 58.6388L40.3046 53.482C40.8761 52.8871 41.6386 52.5884 42.4209 52.5872C43.1528 52.5884 43.8709 52.8507 44.4341 53.3847L45.308 54.2129C45.9053 54.7798 46.2028 55.5387 46.2052 56.3163C46.2024 57.0471 45.9389 57.7603 45.4036 58.3201ZM88.3294 44.3312C88.3284 45.0475 88.0717 45.749 87.5518 46.3064L86.7331 47.1849C86.1616 47.7963 85.3861 48.1055 84.5922 48.1067C83.8719 48.1055 83.1667 47.8525 82.6071 47.3351L68.8107 34.5762L66.425 37.1306L81.1923 50.811C81.8073 51.3803 82.1163 52.1533 82.121 52.9427C82.1163 53.6617 81.8621 54.3621 81.3433 54.9197L80.527 55.7982C79.9555 56.4095 79.1801 56.7175 78.3862 56.7199C77.6659 56.7177 76.9585 56.4635 76.4033 55.9493L62.6033 43.1907L60.22 45.745L72.467 57.0704C73.0572 57.6361 73.3596 58.3891 73.3596 59.162C73.3596 59.8788 73.1053 60.5802 72.5866 61.1366L71.7679 62.015C71.1986 62.6264 70.4209 62.9356 69.6248 62.9378C68.9021 62.9356 68.1971 62.6814 67.6397 62.1672L55.4173 50.8829H55.4151L55.4129 50.8807L53.0343 53.4397L53.0367 53.4419L53.0824 53.4852L59.204 59.135C59.7464 59.6924 60.0274 60.4068 60.0296 61.1458C60.0274 61.859 59.7754 62.557 59.2566 63.1136L58.4379 63.9931C57.8664 64.6044 57.0934 64.9112 56.3016 64.9136C55.5814 64.9114 54.8762 64.6584 54.3188 64.142L48.9888 59.2066C49.4526 58.2968 49.7115 57.3094 49.7115 56.3185C49.7137 54.6378 49.0462 52.9433 47.7265 51.6913L46.8526 50.8622C45.6148 49.6874 44.009 49.1008 42.4245 49.103C42.3015 49.103 42.1775 49.1312 42.0569 49.1382C42.0569 49.109 42.0638 49.0784 42.0638 49.0492C42.066 47.3685 40.0787 44.4196 40.0787 44.4196L39.2072 43.5929C38.2808 42.7144 37.1505 42.1664 35.9749 41.9462C36.2173 41.2599 36.3544 40.5455 36.3544 39.8299C36.3544 38.1492 35.689 36.4532 34.3693 35.2027L33.4978 34.3735C32.2574 33.1977 30.652 32.6109 29.0673 32.6121C28.8823 32.6121 28.6998 32.6495 28.5158 32.666C28.4654 31.0522 27.8154 29.4395 26.5506 28.238V28.2367L25.6816 27.4112C24.4412 26.2342 22.8358 25.6474 21.2511 25.6486C19.5609 25.6474 17.8593 26.3103 16.6005 27.6244L14.5299 29.7852L5.35728 21.9617C4.698 21.3972 4.36887 20.6172 4.36646 19.8162C4.36867 19.145 4.59715 18.488 5.08431 17.9424L14.7628 7.10318C15.1469 6.67219 15.715 6.28226 16.3803 6.01151C17.0456 5.74095 17.8009 5.59239 18.5071 5.5934C19.1221 5.5934 19.6992 5.70472 20.1608 5.90381L25.4745 8.1711C26.9724 8.80239 28.7114 9.06127 30.4592 9.06691C32.2089 9.06107 33.9458 8.80219 35.4439 8.1711L40.7551 5.90481C41.5738 5.5477 42.8092 5.32626 44.0378 5.33089C45.3964 5.32264 46.7572 5.60386 47.5465 6.00667C48.0477 6.25609 48.5232 6.49283 48.9647 6.71406L43.548 10.5217C41.8075 11.7457 40.8694 13.6921 40.8718 15.6562C40.8696 16.9562 41.2817 18.2796 42.1203 19.4027L42.1181 19.4003L42.8336 20.3617C44.1922 22.1678 46.3107 23.0964 48.4282 23.1011C49.624 23.1011 50.8421 22.7989 51.9277 22.1477L55.1671 20.2023C55.8278 19.7983 56.8254 19.543 57.8571 19.5476C59.0694 19.5406 60.2909 19.8991 61.0252 20.4388L69.9871 26.8638C71.9817 28.2927 75.2303 30.9431 77.0306 32.6109L87.4036 42.2016C88.0178 42.7711 88.327 43.5407 88.3294 44.3312ZM99.5048 20.5699L85.6861 35.8501L79.412 30.0505C77.4469 28.2363 74.2063 25.5908 72.0326 24.0295L63.0731 17.6044C61.5541 16.5283 59.6942 16.063 57.8555 16.0562C56.2908 16.0608 54.7144 16.4018 53.3535 17.2121L50.1166 19.1575C49.6199 19.456 49.0345 19.6084 48.4264 19.6096C47.3394 19.6133 46.2515 19.106 45.645 18.2802L44.9317 17.32L44.9293 17.3176C44.5499 16.8059 44.3731 16.2319 44.3705 15.651C44.3751 14.7725 44.7804 13.92 45.5653 13.366L55.1431 6.63636C55.9713 6.03687 57.4446 5.61634 58.8441 5.62681C59.8162 5.62218 60.7448 5.81765 61.3808 6.13168L69.1783 9.90876C70.5077 10.5471 72.008 10.8082 73.5174 10.8118C75.4568 10.8024 77.4173 10.3808 79.0325 9.38879L86.9978 4.43368C87.5061 4.11642 88.1162 3.95236 88.7523 3.95236C89.8275 3.95015 90.9049 4.4373 91.515 5.23246L99.6816 15.6818C100.152 16.2803 100.425 17.1245 100.425 17.9996C100.427 18.9781 100.081 19.941 99.5048 20.5699Z" fill="#4A7446"/>
</svg>
